<?xml version="1.0" standalone="no"?>
<!DOCTYPE svg PUBLIC "-//W3C//DTD SVG 20010904//EN"
 "http://www.w3.org/TR/2001/REC-SVG-20010904/DTD/svg10.dtd">
<svg version="1.0" xmlns="http://www.w3.org/2000/svg"
 width="441.000000pt" height="441.000000pt" viewBox="0 0 441.000000 441.000000"
 preserveAspectRatio="xMidYMid meet">
<metadata>
Created by potrace 1.11, written by Peter Selinger 2001-2013
</metadata>
<g transform="translate(0.000000,441.000000) scale(0.100000,-0.100000)"
fill="#000000" stroke="none">
<path d="M1113 4403 c604 -2 1590 -2 2190 0 601 1 107 2 -1098 2 -1204 0
-1696 -1 -1092 -2z"/>
<path d="M5 2205 c0 -1204 1 -1699 2 -1098 2 600 2 1586 0 2190 -1 604 -2 113
-2 -1092z"/>
<path d="M4405 2205 c0 -1204 1 -1699 2 -1098 2 600 2 1586 0 2190 -1 604 -2
113 -2 -1092z"/>
<path d="M130 2205 l0 -2075 2075 0 2075 0 0 2075 0 2075 -2075 0 -2075 0 0
-2075z m230 1955 l0 -110 -110 0 -110 0 0 110 0 110 110 0 110 0 0 -110z m230
0 l0 -110 -110 0 -110 0 0 110 0 110 110 0 110 0 0 -110z m230 0 l0 -110 -110
0 -110 0 0 110 0 110 110 0 110 0 0 -110z m230 0 l0 -110 -110 0 -110 0 0 110
0 110 110 0 110 0 0 -110z m230 0 l0 -110 -110 0 -110 0 0 110 0 110 110 0
110 0 0 -110z m230 0 l0 -110 -110 0 -110 0 0 110 0 110 110 0 110 0 0 -110z
m230 0 l0 -110 -110 0 -110 0 0 110 0 110 110 0 110 0 0 -110z m230 0 l0 -110
-110 0 -110 0 0 110 0 110 110 0 110 0 0 -110z m230 0 l0 -110 -110 0 -110 0
0 110 0 110 110 0 110 0 0 -110z m230 0 l0 -110 -110 0 -110 0 0 110 0 110
110 0 110 0 0 -110z m230 0 l0 -110 -110 0 -110 0 0 110 0 110 110 0 110 0 0
-110z m230 0 l0 -110 -110 0 -110 0 0 110 0 110 110 0 110 0 0 -110z m230 0
l0 -110 -110 0 -110 0 0 110 0 110 110 0 110 0 0 -110z m230 0 l0 -110 -110 0
-110 0 0 110 0 110 110 0 110 0 0 -110z m230 0 l0 -110 -110 0 -110 0 0 110 0
110 110 0 110 0 0 -110z m230 0 l0 -110 -110 0 -110 0 0 110 0 110 110 0 110
0 0 -110z m230 0 l0 -110 -110 0 -110 0 0 110 0 110 110 0 110 0 0 -110z m230
0 l0 -110 -110 0 -110 0 0 110 0 110 110 0 110 0 0 -110z m-3910 -230 l0 -110
-110 0 -110 0 0 110 0 110 110 0 110 0 0 -110z m230 0 l0 -110 -110 0 -110 0
0 110 0 110 110 0 110 0 0 -110z m230 0 l0 -110 -110 0 -110 0 0 110 0 110
110 0 110 0 0 -110z m230 0 l0 -110 -110 0 -110 0 0 110 0 110 110 0 110 0 0
-110z m230 0 l0 -110 -110 0 -110 0 0 110 0 110 110 0 110 0 0 -110z m230 0
l0 -110 -110 0 -110 0 0 110 0 110 110 0 110 0 0 -110z m230 0 l0 -110 -110 0
-110 0 0 110 0 110 110 0 110 0 0 -110z m230 0 l0 -110 -110 0 -110 0 0 110 0
110 110 0 110 0 0 -110z m230 0 l0 -110 -110 0 -110 0 0 110 0 110 110 0 110
0 0 -110z m230 0 l0 -110 -110 0 -110 0 0 110 0 110 110 0 110 0 0 -110z m230
0 l0 -110 -110 0 -110 0 0 110 0 110 110 0 110 0 0 -110z m230 0 l0 -110 -110
0 -110 0 0 110 0 110 110 0 110 0 0 -110z m230 0 l0 -110 -110 0 -110 0 0 110
0 110 110 0 110 0 0 -110z m230 0 l0 -110 -110 0 -110 0 0 110 0 110 110 0
110 0 0 -110z m230 0 l0 -110 -110 0 -110 0 0 110 0 110 110 0 110 0 0 -110z
m230 0 l0 -110 -110 0 -110 0 0 110 0 110 110 0 110 0 0 -110z m230 0 l0 -110
-110 0 -110 0 0 110 0 110 110 0 110 0 0 -110z m230 0 l0 -110 -110 0 -110 0
0 110 0 110 110 0 110 0 0 -110z m-3910 -230 l0 -110 -110 0 -110 0 0 110 0
110 110 0 110 0 0 -110z m230 0 l0 -110 -110 0 -110 0 0 110 0 110 110 0 110
0 0 -110z m230 14 c0 -69 -4 -99 -14 -110 -11 -10 -41 -14 -110 -14 l-96 0 0
110 0 110 110 0 110 0 0 -96z m230 -14 l0 -110 -96 0 c-69 0 -99 4 -110 14
-10 11 -14 41 -14 110 l0 96 110 0 110 0 0 -110z m230 0 l0 -110 -110 0 -110
0 0 110 0 110 110 0 110 0 0 -110z m230 0 l0 -110 -110 0 -110 0 0 110 0 110
110 0 110 0 0 -110z m230 0 l0 -110 -110 0 -110 0 0 110 0 110 110 0 110 0 0
-110z m230 0 l0 -110 -110 0 -110 0 0 110 0 110 110 0 110 0 0 -110z m230 14
c0 -69 -4 -99 -14 -110 -11 -10 -41 -14 -110 -14 l-96 0 0 110 0 110 110 0
110 0 0 -96z m230 -14 l0 -110 -96 0 c-69 0 -99 4 -110 14 -10 11 -14 41 -14
110 l0 96 110 0 110 0 0 -110z m230 0 l0 -110 -110 0 -110 0 0 110 0 110 110
0 110 0 0 -110z m230 0 l0 -110 -110 0 -110 0 0 110 0 110 110 0 110 0 0 -110z
m230 0 l0 -110 -110 0 -110 0 0 110 0 110 110 0 110 0 0 -110z m230 0 l0 -110
-110 0 -110 0 0 110 0 110 110 0 110 0 0 -110z m230 14 c0 -69 -4 -99 -14
-110 -11 -10 -41 -14 -110 -14 l-96 0 0 110 0 110 110 0 110 0 0 -96z m230
-14 l0 -110 -96 0 c-69 0 -99 4 -110 14 -10 11 -14 41 -14 110 l0 96 110 0
110 0 0 -110z m230 0 l0 -110 -110 0 -110 0 0 110 0 110 110 0 110 0 0 -110z
m230 0 l0 -110 -110 0 -110 0 0 110 0 110 110 0 110 0 0 -110z m-3910 -230 l0
-110 -110 0 -110 0 0 110 0 110 110 0 110 0 0 -110z m230 0 l0 -110 -110 0
-110 0 0 110 0 110 110 0 110 0 0 -110z m216 96 c10 -11 14 -41 14 -110 l0
-96 -110 0 -110 0 0 110 0 110 96 0 c69 0 99 -4 110 -14z m244 -96 l0 -110
-110 0 -110 0 0 95 c0 63 4 101 13 110 9 10 38 14 110 15 l97 0 0 -110z m230
0 l0 -110 -110 0 -110 0 0 110 0 110 110 0 110 0 0 -110z m230 0 l0 -110 -110
0 -110 0 0 110 0 110 110 0 110 0 0 -110z m230 0 l0 -110 -110 0 -110 0 0 110
0 110 110 0 110 0 0 -110z m230 0 l0 -110 -110 0 -110 0 0 110 0 110 110 0
110 0 0 -110z m216 96 c10 -11 14 -41 14 -110 l0 -96 -110 0 -110 0 0 110 0
110 96 0 c69 0 99 -4 110 -14z m244 -96 l0 -110 -110 0 -110 0 0 95 c0 63 4
101 13 110 9 10 38 14 110 15 l97 0 0 -110z m230 0 l0 -110 -110 0 -110 0 0
110 0 110 110 0 110 0 0 -110z m230 0 l0 -110 -110 0 -110 0 0 110 0 110 110
0 110 0 0 -110z m230 0 l0 -110 -110 0 -110 0 0 110 0 110 110 0 110 0 0 -110z
m230 0 l0 -110 -110 0 -110 0 0 110 0 110 110 0 110 0 0 -110z m216 96 c10
-11 14 -41 14 -110 l0 -96 -110 0 -110 0 0 110 0 110 96 0 c69 0 99 -4 110
-14z m244 -96 l0 -110 -110 0 -110 0 0 95 c0 63 4 101 13 110 9 10 38 14 110
15 l97 0 0 -110z m230 0 l0 -110 -110 0 -110 0 0 110 0 110 110 0 110 0 0
-110z m230 0 l0 -110 -110 0 -110 0 0 110 0 110 110 0 110 0 0 -110z m-3910
-230 l0 -110 -110 0 -110 0 0 110 0 110 110 0 110 0 0 -110z m230 0 l0 -110
-110 0 -110 0 0 110 0 110 110 0 110 0 0 -110z m230 0 l0 -110 -110 0 -110 0
0 110 0 110 110 0 110 0 0 -110z m230 0 l0 -110 -110 0 -110 0 0 110 0 110
110 0 110 0 0 -110z m230 0 l0 -110 -110 0 -110 0 0 110 0 110 110 0 110 0 0
-110z m230 0 l0 -110 -110 0 -110 0 0 110 0 110 110 0 110 0 0 -110z m230 0
l0 -110 -110 0 -110 0 0 110 0 110 110 0 110 0 0 -110z m230 0 l0 -110 -110 0
-110 0 0 110 0 110 110 0 110 0 0 -110z m230 0 l0 -110 -110 0 -110 0 0 110 0
110 110 0 110 0 0 -110z m230 0 l0 -110 -110 0 -110 0 0 110 0 110 110 0 110
0 0 -110z m230 0 l0 -110 -110 0 -110 0 0 110 0 110 110 0 110 0 0 -110z m230
0 l0 -110 -110 0 -110 0 0 110 0 110 110 0 110 0 0 -110z m230 0 l0 -110 -110
0 -110 0 0 110 0 110 110 0 110 0 0 -110z m230 0 l0 -110 -110 0 -110 0 0 110
0 110 110 0 110 0 0 -110z m230 0 l0 -110 -110 0 -110 0 0 110 0 110 110 0
110 0 0 -110z m230 0 l0 -110 -110 0 -110 0 0 110 0 110 110 0 110 0 0 -110z
m230 0 l0 -110 -110 0 -110 0 0 110 0 110 110 0 110 0 0 -110z m230 0 l0 -110
-110 0 -110 0 0 110 0 110 110 0 110 0 0 -110z m-3910 -230 l0 -110 -110 0
-110 0 0 110 0 110 110 0 110 0 0 -110z m230 0 l0 -110 -110 0 -110 0 0 110 0
110 110 0 110 0 0 -110z m230 0 l0 -110 -110 0 -110 0 0 110 0 110 110 0 110
0 0 -110z m230 0 l0 -110 -110 0 -110 0 0 110 0 110 110 0 110 0 0 -110z m230
0 l0 -110 -110 0 -110 0 0 110 0 110 110 0 110 0 0 -110z m230 0 l0 -110 -110
0 -110 0 0 110 0 110 110 0 110 0 0 -110z m230 0 l0 -110 -110 0 -110 0 0 110
0 110 110 0 110 0 0 -110z m230 0 l0 -110 -110 0 -110 0 0 110 0 110 110 0
110 0 0 -110z m230 0 l0 -110 -110 0 -110 0 0 110 0 110 110 0 110 0 0 -110z
m230 0 l0 -110 -110 0 -110 0 0 110 0 110 110 0 110 0 0 -110z m230 0 l0 -110
-110 0 -110 0 0 110 0 110 110 0 110 0 0 -110z m230 0 l0 -110 -110 0 -110 0
0 110 0 110 110 0 110 0 0 -110z m230 0 l0 -110 -110 0 -110 0 0 110 0 110
110 0 110 0 0 -110z m230 0 l0 -110 -110 0 -110 0 0 110 0 110 110 0 110 0 0
-110z m230 0 l0 -110 -110 0 -110 0 0 110 0 110 110 0 110 0 0 -110z m230 0
l0 -110 -110 0 -110 0 0 110 0 110 110 0 110 0 0 -110z m230 0 l0 -110 -110 0
-110 0 0 110 0 110 110 0 110 0 0 -110z m230 0 l0 -110 -110 0 -110 0 0 110 0
110 110 0 110 0 0 -110z m-3910 -230 l0 -110 -110 0 -110 0 0 110 0 110 110 0
110 0 0 -110z m230 0 l0 -110 -110 0 -110 0 0 110 0 110 110 0 110 0 0 -110z
m230 0 l0 -110 -110 0 -110 0 0 110 0 110 110 0 110 0 0 -110z m230 0 l0 -110
-110 0 -110 0 0 110 0 110 110 0 110 0 0 -110z m230 0 l0 -110 -110 0 -110 0
0 110 0 110 110 0 110 0 0 -110z m230 0 l0 -110 -110 0 -110 0 0 110 0 110
110 0 110 0 0 -110z m230 0 l0 -110 -110 0 -110 0 0 110 0 110 110 0 110 0 0
-110z m230 0 l0 -110 -110 0 -110 0 0 110 0 110 110 0 110 0 0 -110z m230 0
l0 -110 -110 0 -110 0 0 110 0 110 110 0 110 0 0 -110z m230 0 l0 -110 -110 0
-110 0 0 110 0 110 110 0 110 0 0 -110z m230 0 l0 -110 -110 0 -110 0 0 110 0
110 110 0 110 0 0 -110z m230 0 l0 -110 -110 0 -110 0 0 110 0 110 110 0 110
0 0 -110z m230 0 l0 -110 -110 0 -110 0 0 110 0 110 110 0 110 0 0 -110z m230
0 l0 -110 -110 0 -110 0 0 110 0 110 110 0 110 0 0 -110z m230 0 l0 -110 -110
0 -110 0 0 110 0 110 110 0 110 0 0 -110z m230 0 l0 -110 -110 0 -110 0 0 110
0 110 110 0 110 0 0 -110z m230 0 l0 -110 -110 0 -110 0 0 110 0 110 110 0
110 0 0 -110z m230 0 l0 -110 -110 0 -110 0 0 110 0 110 110 0 110 0 0 -110z
m-3910 -230 l0 -110 -110 0 -110 0 0 110 0 110 110 0 110 0 0 -110z m230 0 l0
-110 -110 0 -110 0 0 110 0 110 110 0 110 0 0 -110z m230 0 l0 -110 -110 0
-110 0 0 110 0 110 110 0 110 0 0 -110z m230 0 l0 -110 -110 0 -110 0 0 110 0
110 110 0 110 0 0 -110z m230 0 l0 -110 -110 0 -110 0 0 110 0 110 110 0 110
0 0 -110z m230 0 l0 -110 -110 0 -110 0 0 110 0 110 110 0 110 0 0 -110z m230
0 l0 -110 -110 0 -110 0 0 110 0 110 110 0 110 0 0 -110z m230 0 l0 -110 -110
0 -110 0 0 110 0 110 110 0 110 0 0 -110z m230 0 l0 -110 -110 0 -110 0 0 110
0 110 110 0 110 0 0 -110z m230 0 l0 -110 -110 0 -110 0 0 110 0 110 110 0
110 0 0 -110z m230 0 l0 -110 -110 0 -110 0 0 110 0 110 110 0 110 0 0 -110z
m230 0 l0 -110 -110 0 -110 0 0 110 0 110 110 0 110 0 0 -110z m230 0 l0 -110
-110 0 -110 0 0 110 0 110 110 0 110 0 0 -110z m230 0 l0 -110 -110 0 -110 0
0 110 0 110 110 0 110 0 0 -110z m230 0 l0 -110 -110 0 -110 0 0 110 0 110
110 0 110 0 0 -110z m230 0 l0 -110 -110 0 -110 0 0 110 0 110 110 0 110 0 0
-110z m230 0 l0 -110 -110 0 -110 0 0 110 0 110 110 0 110 0 0 -110z m230 0
l0 -110 -110 0 -110 0 0 110 0 110 110 0 110 0 0 -110z m-3910 -230 l0 -110
-110 0 -110 0 0 110 0 110 110 0 110 0 0 -110z m230 0 l0 -110 -110 0 -110 0
0 110 0 110 110 0 110 0 0 -110z m230 14 c0 -69 -4 -99 -14 -110 -11 -10 -41
-14 -110 -14 l-96 0 0 110 0 110 110 0 110 0 0 -96z m230 -14 l0 -110 -96 0
c-69 0 -99 4 -110 14 -10 11 -14 41 -14 110 l0 96 110 0 110 0 0 -110z m230 0
l0 -110 -110 0 -110 0 0 110 0 110 110 0 110 0 0 -110z m230 0 l0 -110 -110 0
-110 0 0 110 0 110 110 0 110 0 0 -110z m230 0 l0 -110 -110 0 -110 0 0 110 0
110 110 0 110 0 0 -110z m230 0 l0 -110 -110 0 -110 0 0 110 0 110 110 0 110
0 0 -110z m230 14 c0 -69 -4 -99 -14 -110 -11 -10 -41 -14 -110 -14 l-96 0 0
110 0 110 110 0 110 0 0 -96z m230 -14 l0 -110 -96 0 c-69 0 -99 4 -110 14
-10 11 -14 41 -14 110 l0 96 110 0 110 0 0 -110z m230 0 l0 -110 -110 0 -110
0 0 110 0 110 110 0 110 0 0 -110z m230 0 l0 -110 -110 0 -110 0 0 110 0 110
110 0 110 0 0 -110z m230 0 l0 -110 -110 0 -110 0 0 110 0 110 110 0 110 0 0
-110z m230 0 l0 -110 -110 0 -110 0 0 110 0 110 110 0 110 0 0 -110z m230 14
c0 -69 -4 -99 -14 -110 -11 -10 -41 -14 -110 -14 l-96 0 0 110 0 110 110 0
110 0 0 -96z m230 -14 l0 -110 -96 0 c-69 0 -99 4 -110 14 -10 11 -14 41 -14
110 l0 96 110 0 110 0 0 -110z m230 0 l0 -110 -110 0 -110 0 0 110 0 110 110
0 110 0 0 -110z m230 0 l0 -110 -110 0 -110 0 0 110 0 110 110 0 110 0 0 -110z
m-3910 -230 l0 -110 -110 0 -110 0 0 110 0 110 110 0 110 0 0 -110z m230 0 l0
-110 -110 0 -110 0 0 110 0 110 110 0 110 0 0 -110z m216 96 c10 -11 14 -41
14 -110 l0 -96 -110 0 -110 0 0 110 0 110 96 0 c69 0 99 -4 110 -14z m244 -96
l0 -110 -110 0 -110 0 0 95 c0 63 4 101 13 110 9 10 38 14 110 15 l97 0 0
-110z m230 0 l0 -110 -110 0 -110 0 0 110 0 110 110 0 110 0 0 -110z m230 0
l0 -110 -110 0 -110 0 0 110 0 110 110 0 110 0 0 -110z m230 0 l0 -110 -110 0
-110 0 0 110 0 110 110 0 110 0 0 -110z m230 0 l0 -110 -110 0 -110 0 0 110 0
110 110 0 110 0 0 -110z m216 96 c10 -11 14 -41 14 -110 l0 -96 -110 0 -110 0
0 110 0 110 96 0 c69 0 99 -4 110 -14z m244 -96 l0 -110 -110 0 -110 0 0 95
c0 63 4 101 13 110 9 10 38 14 110 15 l97 0 0 -110z m230 0 l0 -110 -110 0
-110 0 0 110 0 110 110 0 110 0 0 -110z m230 0 l0 -110 -110 0 -110 0 0 110 0
110 110 0 110 0 0 -110z m230 0 l0 -110 -110 0 -110 0 0 110 0 110 110 0 110
0 0 -110z m230 0 l0 -110 -110 0 -110 0 0 110 0 110 110 0 110 0 0 -110z m216
96 c10 -11 14 -41 14 -110 l0 -96 -110 0 -110 0 0 110 0 110 96 0 c69 0 99 -4
110 -14z m244 -96 l0 -110 -110 0 -110 0 0 95 c0 63 4 101 13 110 9 10 38 14
110 15 l97 0 0 -110z m230 0 l0 -110 -110 0 -110 0 0 110 0 110 110 0 110 0 0
-110z m230 0 l0 -110 -110 0 -110 0 0 110 0 110 110 0 110 0 0 -110z m-3910
-230 l0 -110 -110 0 -110 0 0 110 0 110 110 0 110 0 0 -110z m230 0 l0 -110
-110 0 -110 0 0 110 0 110 110 0 110 0 0 -110z m230 0 l0 -110 -110 0 -110 0
0 110 0 110 110 0 110 0 0 -110z m230 0 l0 -110 -110 0 -110 0 0 110 0 110
110 0 110 0 0 -110z m230 0 l0 -110 -110 0 -110 0 0 110 0 110 110 0 110 0 0
-110z m230 0 l0 -110 -110 0 -110 0 0 110 0 110 110 0 110 0 0 -110z m230 0
l0 -110 -110 0 -110 0 0 110 0 110 110 0 110 0 0 -110z m230 0 l0 -110 -110 0
-110 0 0 110 0 110 110 0 110 0 0 -110z m230 0 l0 -110 -110 0 -110 0 0 110 0
110 110 0 110 0 0 -110z m230 0 l0 -110 -110 0 -110 0 0 110 0 110 110 0 110
0 0 -110z m230 0 l0 -110 -110 0 -110 0 0 110 0 110 110 0 110 0 0 -110z m230
0 l0 -110 -110 0 -110 0 0 110 0 110 110 0 110 0 0 -110z m230 0 l0 -110 -110
0 -110 0 0 110 0 110 110 0 110 0 0 -110z m230 0 l0 -110 -110 0 -110 0 0 110
0 110 110 0 110 0 0 -110z m230 0 l0 -110 -110 0 -110 0 0 110 0 110 110 0
110 0 0 -110z m230 0 l0 -110 -110 0 -110 0 0 110 0 110 110 0 110 0 0 -110z
m230 0 l0 -110 -110 0 -110 0 0 110 0 110 110 0 110 0 0 -110z m230 0 l0 -110
-110 0 -110 0 0 110 0 110 110 0 110 0 0 -110z m-3910 -230 l0 -110 -110 0
-110 0 0 110 0 110 110 0 110 0 0 -110z m230 0 l0 -110 -110 0 -110 0 0 110 0
110 110 0 110 0 0 -110z m230 0 l0 -110 -110 0 -110 0 0 110 0 110 110 0 110
0 0 -110z m230 0 l0 -110 -110 0 -110 0 0 110 0 110 110 0 110 0 0 -110z m230
0 l0 -110 -110 0 -110 0 0 110 0 110 110 0 110 0 0 -110z m230 0 l0 -110 -110
0 -110 0 0 110 0 110 110 0 110 0 0 -110z m230 0 l0 -110 -110 0 -110 0 0 110
0 110 110 0 110 0 0 -110z m230 0 l0 -110 -110 0 -110 0 0 110 0 110 110 0
110 0 0 -110z m230 0 l0 -110 -110 0 -110 0 0 110 0 110 110 0 110 0 0 -110z
m230 0 l0 -110 -110 0 -110 0 0 110 0 110 110 0 110 0 0 -110z m230 0 l0 -110
-110 0 -110 0 0 110 0 110 110 0 110 0 0 -110z m230 0 l0 -110 -110 0 -110 0
0 110 0 110 110 0 110 0 0 -110z m230 0 l0 -110 -110 0 -110 0 0 110 0 110
110 0 110 0 0 -110z m230 0 l0 -110 -110 0 -110 0 0 110 0 110 110 0 110 0 0
-110z m230 0 l0 -110 -110 0 -110 0 0 110 0 110 110 0 110 0 0 -110z m230 0
l0 -110 -110 0 -110 0 0 110 0 110 110 0 110 0 0 -110z m230 0 l0 -110 -110 0
-110 0 0 110 0 110 110 0 110 0 0 -110z m230 0 l0 -110 -110 0 -110 0 0 110 0
110 110 0 110 0 0 -110z m-3910 -230 l0 -110 -110 0 -110 0 0 110 0 110 110 0
110 0 0 -110z m230 0 l0 -110 -110 0 -110 0 0 110 0 110 110 0 110 0 0 -110z
m230 0 l0 -110 -110 0 -110 0 0 110 0 110 110 0 110 0 0 -110z m230 0 l0 -110
-110 0 -110 0 0 110 0 110 110 0 110 0 0 -110z m230 0 l0 -110 -110 0 -110 0
0 110 0 110 110 0 110 0 0 -110z m230 0 l0 -110 -110 0 -110 0 0 110 0 110
110 0 110 0 0 -110z m230 0 l0 -110 -110 0 -110 0 0 110 0 110 110 0 110 0 0
-110z m230 0 l0 -110 -110 0 -110 0 0 110 0 110 110 0 110 0 0 -110z m230 0
l0 -110 -110 0 -110 0 0 110 0 110 110 0 110 0 0 -110z m230 0 l0 -110 -110 0
-110 0 0 110 0 110 110 0 110 0 0 -110z m230 0 l0 -110 -110 0 -110 0 0 110 0
110 110 0 110 0 0 -110z m230 0 l0 -110 -110 0 -110 0 0 110 0 110 110 0 110
0 0 -110z m230 0 l0 -110 -110 0 -110 0 0 110 0 110 110 0 110 0 0 -110z m230
0 l0 -110 -110 0 -110 0 0 110 0 110 110 0 110 0 0 -110z m230 0 l0 -110 -110
0 -110 0 0 110 0 110 110 0 110 0 0 -110z m230 0 l0 -110 -110 0 -110 0 0 110
0 110 110 0 110 0 0 -110z m230 0 l0 -110 -110 0 -110 0 0 110 0 110 110 0
110 0 0 -110z m230 0 l0 -110 -110 0 -110 0 0 110 0 110 110 0 110 0 0 -110z
m-3910 -230 l0 -110 -110 0 -110 0 0 110 0 110 110 0 110 0 0 -110z m230 0 l0
-110 -110 0 -110 0 0 110 0 110 110 0 110 0 0 -110z m230 0 l0 -110 -110 0
-110 0 0 110 0 110 110 0 110 0 0 -110z m230 0 l0 -110 -110 0 -110 0 0 110 0
110 110 0 110 0 0 -110z m230 0 l0 -110 -110 0 -110 0 0 110 0 110 110 0 110
0 0 -110z m230 0 l0 -110 -110 0 -110 0 0 110 0 110 110 0 110 0 0 -110z m230
0 l0 -110 -110 0 -110 0 0 110 0 110 110 0 110 0 0 -110z m230 0 l0 -110 -110
0 -110 0 0 110 0 110 110 0 110 0 0 -110z m230 0 l0 -110 -110 0 -110 0 0 110
0 110 110 0 110 0 0 -110z m230 0 l0 -110 -110 0 -110 0 0 110 0 110 110 0
110 0 0 -110z m230 0 l0 -110 -110 0 -110 0 0 110 0 110 110 0 110 0 0 -110z
m230 0 l0 -110 -110 0 -110 0 0 110 0 110 110 0 110 0 0 -110z m230 0 l0 -110
-110 0 -110 0 0 110 0 110 110 0 110 0 0 -110z m230 0 l0 -110 -110 0 -110 0
0 110 0 110 110 0 110 0 0 -110z m230 0 l0 -110 -110 0 -110 0 0 110 0 110
110 0 110 0 0 -110z m230 0 l0 -110 -110 0 -110 0 0 110 0 110 110 0 110 0 0
-110z m230 0 l0 -110 -110 0 -110 0 0 110 0 110 110 0 110 0 0 -110z m230 0
l0 -110 -110 0 -110 0 0 110 0 110 110 0 110 0 0 -110z m-3910 -230 l0 -110
-110 0 -110 0 0 110 0 110 110 0 110 0 0 -110z m230 0 l0 -110 -110 0 -110 0
0 110 0 110 110 0 110 0 0 -110z m230 14 c0 -69 -4 -99 -14 -110 -11 -10 -41
-14 -110 -14 l-96 0 0 110 0 110 110 0 110 0 0 -96z m230 -14 l0 -110 -96 0
c-69 0 -99 4 -110 14 -10 11 -14 41 -14 110 l0 96 110 0 110 0 0 -110z m230 0
l0 -110 -110 0 -110 0 0 110 0 110 110 0 110 0 0 -110z m230 0 l0 -110 -110 0
-110 0 0 110 0 110 110 0 110 0 0 -110z m230 0 l0 -110 -110 0 -110 0 0 110 0
110 110 0 110 0 0 -110z m230 0 l0 -110 -110 0 -110 0 0 110 0 110 110 0 110
0 0 -110z m230 14 c0 -69 -4 -99 -14 -110 -11 -10 -41 -14 -110 -14 l-96 0 0
110 0 110 110 0 110 0 0 -96z m230 -14 l0 -110 -96 0 c-69 0 -99 4 -110 14
-10 11 -14 41 -14 110 l0 96 110 0 110 0 0 -110z m230 0 l0 -110 -110 0 -110
0 0 110 0 110 110 0 110 0 0 -110z m230 0 l0 -110 -110 0 -110 0 0 110 0 110
110 0 110 0 0 -110z m230 0 l0 -110 -110 0 -110 0 0 110 0 110 110 0 110 0 0
-110z m230 0 l0 -110 -110 0 -110 0 0 110 0 110 110 0 110 0 0 -110z m230 14
c0 -69 -4 -99 -14 -110 -11 -10 -41 -14 -110 -14 l-96 0 0 110 0 110 110 0
110 0 0 -96z m230 -14 l0 -110 -96 0 c-69 0 -99 4 -110 14 -10 11 -14 41 -14
110 l0 96 110 0 110 0 0 -110z m230 0 l0 -110 -110 0 -110 0 0 110 0 110 110
0 110 0 0 -110z m230 0 l0 -110 -110 0 -110 0 0 110 0 110 110 0 110 0 0 -110z
m-3910 -230 l0 -110 -110 0 -110 0 0 110 0 110 110 0 110 0 0 -110z m230 0 l0
-110 -110 0 -110 0 0 110 0 110 110 0 110 0 0 -110z m216 96 c10 -11 14 -41
14 -110 l0 -96 -110 0 -110 0 0 110 0 110 96 0 c69 0 99 -4 110 -14z m244 -96
l0 -110 -110 0 -110 0 0 95 c0 63 4 101 13 110 9 10 38 14 110 15 l97 0 0
-110z m230 0 l0 -110 -110 0 -110 0 0 110 0 110 110 0 110 0 0 -110z m230 0
l0 -110 -110 0 -110 0 0 110 0 110 110 0 110 0 0 -110z m230 0 l0 -110 -110 0
-110 0 0 110 0 110 110 0 110 0 0 -110z m230 0 l0 -110 -110 0 -110 0 0 110 0
110 110 0 110 0 0 -110z m216 96 c10 -11 14 -41 14 -110 l0 -96 -110 0 -110 0
0 110 0 110 96 0 c69 0 99 -4 110 -14z m244 -96 l0 -110 -110 0 -110 0 0 95
c0 63 4 101 13 110 9 10 38 14 110 15 l97 0 0 -110z m230 0 l0 -110 -110 0
-110 0 0 110 0 110 110 0 110 0 0 -110z m230 0 l0 -110 -110 0 -110 0 0 110 0
110 110 0 110 0 0 -110z m230 0 l0 -110 -110 0 -110 0 0 110 0 110 110 0 110
0 0 -110z m230 0 l0 -110 -110 0 -110 0 0 110 0 110 110 0 110 0 0 -110z m216
96 c10 -11 14 -41 14 -110 l0 -96 -110 0 -110 0 0 110 0 110 96 0 c69 0 99 -4
110 -14z m244 -96 l0 -110 -110 0 -110 0 0 95 c0 63 4 101 13 110 9 10 38 14
110 15 l97 0 0 -110z m230 0 l0 -110 -110 0 -110 0 0 110 0 110 110 0 110 0 0
-110z m230 0 l0 -110 -110 0 -110 0 0 110 0 110 110 0 110 0 0 -110z m-3910
-230 l0 -110 -110 0 -110 0 0 110 0 110 110 0 110 0 0 -110z m230 0 l0 -110
-110 0 -110 0 0 110 0 110 110 0 110 0 0 -110z m230 0 l0 -110 -110 0 -110 0
0 110 0 110 110 0 110 0 0 -110z m230 0 l0 -110 -110 0 -110 0 0 110 0 110
110 0 110 0 0 -110z m230 0 l0 -110 -110 0 -110 0 0 110 0 110 110 0 110 0 0
-110z m230 0 l0 -110 -110 0 -110 0 0 110 0 110 110 0 110 0 0 -110z m230 0
l0 -110 -110 0 -110 0 0 110 0 110 110 0 110 0 0 -110z m230 0 l0 -110 -110 0
-110 0 0 110 0 110 110 0 110 0 0 -110z m230 0 l0 -110 -110 0 -110 0 0 110 0
110 110 0 110 0 0 -110z m230 0 l0 -110 -110 0 -110 0 0 110 0 110 110 0 110
0 0 -110z m230 0 l0 -110 -110 0 -110 0 0 110 0 110 110 0 110 0 0 -110z m230
0 l0 -110 -110 0 -110 0 0 110 0 110 110 0 110 0 0 -110z m230 0 l0 -110 -110
0 -110 0 0 110 0 110 110 0 110 0 0 -110z m230 0 l0 -110 -110 0 -110 0 0 110
0 110 110 0 110 0 0 -110z m230 0 l0 -110 -110 0 -110 0 0 110 0 110 110 0
110 0 0 -110z m230 0 l0 -110 -110 0 -110 0 0 110 0 110 110 0 110 0 0 -110z
m230 0 l0 -110 -110 0 -110 0 0 110 0 110 110 0 110 0 0 -110z m230 0 l0 -110
-110 0 -110 0 0 110 0 110 110 0 110 0 0 -110z m-3910 -230 l0 -110 -110 0
-110 0 0 110 0 110 110 0 110 0 0 -110z m230 0 l0 -110 -110 0 -110 0 0 110 0
110 110 0 110 0 0 -110z m230 0 l0 -110 -110 0 -110 0 0 110 0 110 110 0 110
0 0 -110z m230 0 l0 -110 -110 0 -110 0 0 110 0 110 110 0 110 0 0 -110z m230
0 l0 -110 -110 0 -110 0 0 110 0 110 110 0 110 0 0 -110z m230 0 l0 -110 -110
0 -110 0 0 110 0 110 110 0 110 0 0 -110z m230 0 l0 -110 -110 0 -110 0 0 110
0 110 110 0 110 0 0 -110z m230 0 l0 -110 -110 0 -110 0 0 110 0 110 110 0
110 0 0 -110z m230 0 l0 -110 -110 0 -110 0 0 110 0 110 110 0 110 0 0 -110z
m230 0 l0 -110 -110 0 -110 0 0 110 0 110 110 0 110 0 0 -110z m230 0 l0 -110
-110 0 -110 0 0 110 0 110 110 0 110 0 0 -110z m230 0 l0 -110 -110 0 -110 0
0 110 0 110 110 0 110 0 0 -110z m230 0 l0 -110 -110 0 -110 0 0 110 0 110
110 0 110 0 0 -110z m230 0 l0 -110 -110 0 -110 0 0 110 0 110 110 0 110 0 0
-110z m230 0 l0 -110 -110 0 -110 0 0 110 0 110 110 0 110 0 0 -110z m230 0
l0 -110 -110 0 -110 0 0 110 0 110 110 0 110 0 0 -110z m230 0 l0 -110 -110 0
-110 0 0 110 0 110 110 0 110 0 0 -110z m230 0 l0 -110 -110 0 -110 0 0 110 0
110 110 0 110 0 0 -110z"/>
<path d="M1113 3 c604 -2 1590 -2 2190 0 601 1 107 2 -1098 2 -1204 0 -1696
-1 -1092 -2z"/>
</g>
</svg>
